<?xml version="1.0" encoding="UTF-8" standalone="no"?>
<svg width="127px" height="99px" viewBox="0 0 127 99" version="1.1" xmlns="http://www.w3.org/2000/svg" xmlns:xlink="http://www.w3.org/1999/xlink">
    <!-- Generator: Sketch 3.8.3 (29802) - http://www.bohemiancoding.com/sketch -->
    <title>hippo</title>
    <desc>Created with Sketch.</desc>
    <defs>
        <path d="M82.084991,34.9511325 L67.3869801,34.9511325 L66.0560579,34.8934047 C56.5660036,34.2006711 49.0433996,26.6383284 49.0433996,26.6383284 C49.0433996,26.6383284 48.7540687,24.9064942 48.3490054,23.5787546 C47.8860759,22.2510151 46.2079566,20.4614531 45.1663653,21.1541867 C44.124774,21.8469204 44.124774,22.7128375 44.124774,22.7128375 L44.0669078,26.465145 C38.5696203,26.9269674 35.5605787,30.3906358 33.7088608,31.833831 C32.0307414,33.1615705 27.2857143,33.2192983 26.3598553,33.2770262 L22.4249548,33.2770262 C14.960217,33.334754 9,39.280718 9,46.6698773 C9,54.0590366 15.0180832,60.0627284 22.4249548,60.0627284 L37.9330922,60.0627284 L37.9330922,60.1204563 C38.2802893,60.1204563 38.5696203,60.0627284 38.9168174,60.0627284 C45.0506329,60.0627284 50.0271248,64.9118642 50.1428571,70.9732839 L50.1428571,70.9732839 L50.1428571,75.0142304 L50.1428571,75.0719582 C50.1428571,75.0719582 50.1428571,75.0719582 50.1428571,75.129686 L50.1428571,75.2451416 L50.1428571,75.3028694 C50.3164557,77.2656148 53.3254973,78.8242656 56.9710669,78.8242656 C60.6745027,78.8242656 63.6835443,77.2656148 63.7992767,75.3028694 L63.7992767,75.2451416 L63.7992767,75.129686 C63.7992767,75.129686 63.7992767,75.129686 63.7992767,75.0719582 L63.7992767,75.0142304 L63.7992767,73.9174021 C63.7992767,72.6473903 64.840868,71.6660176 66.0560579,71.6660176 L76.8191682,71.6660176 C78.0922242,71.6660176 79.0759494,72.7051181 79.0759494,73.9174021 L79.0759494,75.0142304 C79.0759494,75.129686 79.0759494,75.2451416 79.1338156,75.3605972 C79.4231465,77.2656148 82.3743219,78.7665378 85.9620253,78.7665378 C89.7233273,78.7665378 92.7902351,77.1501592 92.7902351,75.0719582 L92.7902351,75.0142304 L92.7902351,75.0142304 L92.7902351,73.6864908 L92.7902351,70.9732839 C92.7902351,70.9732839 93.2531646,68.1446214 94.5840868,66.5859706 C94.7576854,66.470515 94.8734177,66.2973316 94.9891501,66.181876 L94.9891501,66.181876 C95.0470163,66.1241482 95.1048825,66.0664203 95.1627486,66.0086925 C98.3453888,62.7182076 100.254973,58.2731664 100.254973,53.3663029 C100.428571,43.1484811 92.2115732,34.9511325 82.084991,34.9511325 L82.084991,34.9511325 Z M38.0488246,35.8747775 C37.1229656,35.8747775 36.3707052,35.124316 36.3707052,34.2006711 C36.3707052,33.2770262 37.1229656,32.5265647 38.0488246,32.5265647 C38.9746835,32.5265647 39.7269439,33.2770262 39.7269439,34.2006711 C39.7269439,35.124316 38.9746835,35.8747775 38.0488246,35.8747775 L38.0488246,35.8747775 Z" id="path-1"></path>
        <filter x="-50%" y="-50%" width="200%" height="200%" filterUnits="objectBoundingBox" id="filter-2">
            <feOffset dx="0" dy="2" in="SourceAlpha" result="shadowOffsetOuter1"></feOffset>
            <feGaussianBlur stdDeviation="6.5" in="shadowOffsetOuter1" result="shadowBlurOuter1"></feGaussianBlur>
            <feColorMatrix values="0 0 0 0 0   0 0 0 0 0   0 0 0 0 0  0 0 0 0.135869565 0" type="matrix" in="shadowBlurOuter1"></feColorMatrix>
        </filter>
    </defs>
    <g id="Notar" stroke="none" stroke-width="1" fill="none" fill-rule="evenodd">
        <g id="hippo">
            <g id="Shape">
                <use fill="black" fill-opacity="1" filter="url(#filter-2)" xlink:href="#path-1"></use>
                <use fill="#FFFFFF" fill-rule="evenodd" xlink:href="#path-1"></use>
            </g>
        </g>
    </g>
</svg>