<?xml version="1.0" encoding="UTF-8" standalone="no"?>
<svg width="117px" height="83px" viewBox="0 0 117 83" version="1.1" xmlns="http://www.w3.org/2000/svg" xmlns:xlink="http://www.w3.org/1999/xlink">
    <!-- Generator: Sketch 3.8.3 (29802) - http://www.bohemiancoding.com/sketch -->
    <title>Shape</title>
    <desc>Created with Sketch.</desc>
    <defs>
        <path d="M73.084991,13.9511325 L58.3869801,13.9511325 L57.0560579,13.8934047 C47.5660036,13.2006711 40.0433996,5.63832838 40.0433996,5.63832838 C40.0433996,5.63832838 39.7540687,3.90649418 39.3490054,2.57875463 C38.8860759,1.25101507 37.2079566,-0.538546932 36.1663653,0.154186748 C35.124774,0.846920428 35.124774,1.71283753 35.124774,1.71283753 L35.0669078,5.46514496 C29.5696203,5.92696742 26.5605787,9.39063582 24.7088608,10.833831 C23.0307414,12.1615705 18.2857143,12.2192983 17.3598553,12.2770262 L13.4249548,12.2770262 C5.960217,12.334754 0,18.280718 0,25.6698773 C0,33.0590366 6.01808318,39.0627284 13.4249548,39.0627284 L28.9330922,39.0627284 L28.9330922,39.1204563 C29.2802893,39.1204563 29.5696203,39.0627284 29.9168174,39.0627284 C36.0506329,39.0627284 41.0271248,43.9118642 41.1428571,49.9732839 L41.1428571,49.9732839 L41.1428571,54.0142304 L41.1428571,54.0719582 C41.1428571,54.0719582 41.1428571,54.0719582 41.1428571,54.129686 L41.1428571,54.2451416 L41.1428571,54.3028694 C41.3164557,56.2656148 44.3254973,57.8242656 47.9710669,57.8242656 C51.6745027,57.8242656 54.6835443,56.2656148 54.7992767,54.3028694 L54.7992767,54.2451416 L54.7992767,54.129686 C54.7992767,54.129686 54.7992767,54.129686 54.7992767,54.0719582 L54.7992767,54.0142304 L54.7992767,52.9174021 C54.7992767,51.6473903 55.840868,50.6660176 57.0560579,50.6660176 L67.8191682,50.6660176 C69.0922242,50.6660176 70.0759494,51.7051181 70.0759494,52.9174021 L70.0759494,54.0142304 C70.0759494,54.129686 70.0759494,54.2451416 70.1338156,54.3605972 C70.4231465,56.2656148 73.3743219,57.7665378 76.9620253,57.7665378 C80.7233273,57.7665378 83.7902351,56.1501592 83.7902351,54.0719582 L83.7902351,54.0142304 L83.7902351,54.0142304 L83.7902351,52.6864908 L83.7902351,49.9732839 C83.7902351,49.9732839 84.2531646,47.1446214 85.5840868,45.5859706 C85.7576854,45.470515 85.8734177,45.2973316 85.9891501,45.181876 L85.9891501,45.181876 C86.0470163,45.1241482 86.1048825,45.0664203 86.1627486,45.0086925 C89.3453888,41.7182076 91.2549729,37.2731664 91.2549729,32.3663029 C91.4285714,22.1484811 83.2115732,13.9511325 73.084991,13.9511325 L73.084991,13.9511325 Z M29.0488246,14.8747775 C28.1229656,14.8747775 27.3707052,14.124316 27.3707052,13.2006711 C27.3707052,12.2770262 28.1229656,11.5265647 29.0488246,11.5265647 C29.9746835,11.5265647 30.7269439,12.2770262 30.7269439,13.2006711 C30.7269439,14.124316 29.9746835,14.8747775 29.0488246,14.8747775 L29.0488246,14.8747775 Z" id="path-1"></path>
        <filter x="-50%" y="-50%" width="200%" height="200%" filterUnits="objectBoundingBox" id="filter-2">
            <feOffset dx="0" dy="2" in="SourceAlpha" result="shadowOffsetOuter1"></feOffset>
            <feGaussianBlur stdDeviation="6.5" in="shadowOffsetOuter1" result="shadowBlurOuter1"></feGaussianBlur>
            <feColorMatrix values="0 0 0 0 0   0 0 0 0 0   0 0 0 0 0  0 0 0 0.135869565 0" type="matrix" in="shadowBlurOuter1"></feColorMatrix>
        </filter>
    </defs>
    <g id="Notar" stroke="none" stroke-width="1" fill="none" fill-rule="evenodd">
        <g id="splash" transform="translate(-572.000000, -230.000000)">
            <g id="logo" transform="translate(577.000000, 240.000000)">
                <g id="hippo" transform="translate(8.045714, 0.000000)">
                    <g id="Shape">
                        <use fill="black" fill-opacity="1" filter="url(#filter-2)" xlink:href="#path-1"></use>
                        <use fill="#FFFFFF" fill-rule="evenodd" xlink:href="#path-1"></use>
                    </g>
                </g>
            </g>
        </g>
    </g>
</svg>