<?xml version="1.0" encoding="UTF-8" standalone="no"?>
<svg width="174px" height="187px" viewBox="0 0 174 187" version="1.1" xmlns="http://www.w3.org/2000/svg" xmlns:xlink="http://www.w3.org/1999/xlink">
    <!-- Generator: Sketch 3.8.3 (29802) - http://www.bohemiancoding.com/sketch -->
    <title>logo</title>
    <desc>Created with Sketch.</desc>
    <defs>
        <path d="M99.9208861,19.1422516 L79.8259494,19.1422516 L78.0063291,19.0630437 C65.0316456,18.1125487 54.7468354,7.73631104 54.7468354,7.73631104 C54.7468354,7.73631104 54.3512658,5.36007341 53.7974684,3.53829123 C53.164557,1.71650906 50.8702532,-0.738936488 49.4462025,0.211558561 C48.0221519,1.16205361 48.0221519,2.35017242 48.0221519,2.35017242 L47.943038,7.49868727 C40.4272152,8.13235064 36.3132911,12.8848259 33.7816456,14.8650239 C31.4873418,16.6868061 25,16.766014 23.7341772,16.8452219 L18.3544304,16.8452219 C8.14873418,16.9244298 0,25.0828457 0,35.2214596 C0,45.3600734 8.2278481,53.5976972 18.3544304,53.5976972 L39.556962,53.5976972 L39.556962,53.6769051 C40.0316456,53.6769051 40.4272152,53.5976972 40.9018987,53.5976972 C49.2879747,53.5976972 56.0917722,60.2511625 56.25,68.5679942 L56.25,68.5679942 L56.25,74.1125487 L56.25,74.1917566 C56.25,74.1917566 56.25,74.1917566 56.25,74.2709645 L56.25,74.4293803 L56.25,74.5085883 C56.4873418,77.2016576 60.6012658,79.3402714 65.585443,79.3402714 C70.6487342,79.3402714 74.7626582,77.2016576 74.9208861,74.5085883 L74.9208861,74.4293803 L74.9208861,74.2709645 C74.9208861,74.2709645 74.9208861,74.2709645 74.9208861,74.1917566 L74.9208861,74.1125487 L74.9208861,72.6075982 C74.9208861,70.8650239 76.3449367,69.5184893 78.0063291,69.5184893 L92.721519,69.5184893 C94.4620253,69.5184893 95.806962,70.9442318 95.806962,72.6075982 L95.806962,74.1125487 C95.806962,74.2709645 95.806962,74.4293803 95.8860759,74.5877962 C96.2816456,77.2016576 100.316456,79.2610635 105.221519,79.2610635 C110.363924,79.2610635 114.556962,77.0432417 114.556962,74.1917566 L114.556962,74.1125487 L114.556962,74.1125487 L114.556962,72.2907665 L114.556962,68.5679942 C114.556962,68.5679942 115.189873,64.6868061 117.009494,62.5481922 C117.246835,62.3897764 117.405063,62.1521526 117.563291,61.9937368 L117.563291,61.9937368 C117.642405,61.9145289 117.721519,61.8353209 117.800633,61.756113 C122.151899,57.2412615 124.762658,51.1422516 124.762658,44.4095784 C125,30.3897764 113.765823,19.1422516 99.9208861,19.1422516 L99.9208861,19.1422516 Z M39.7151899,20.4095784 C38.4493671,20.4095784 37.4208861,19.3798754 37.4208861,18.1125487 C37.4208861,16.8452219 38.4493671,15.815519 39.7151899,15.815519 C40.9810127,15.815519 42.0094937,16.8452219 42.0094937,18.1125487 C42.0094937,19.3798754 40.9810127,20.4095784 39.7151899,20.4095784 L39.7151899,20.4095784 Z" id="path-1"></path>
        <filter x="-50%" y="-50%" width="200%" height="200%" filterUnits="objectBoundingBox" id="filter-2">
            <feOffset dx="0" dy="2" in="SourceAlpha" result="shadowOffsetOuter1"></feOffset>
            <feGaussianBlur stdDeviation="6.5" in="shadowOffsetOuter1" result="shadowBlurOuter1"></feGaussianBlur>
            <feColorMatrix values="0 0 0 0 0   0 0 0 0 0   0 0 0 0 0  0 0 0 0.135869565 0" type="matrix" in="shadowBlurOuter1"></feColorMatrix>
        </filter>
    </defs>
    <g id="Notar" stroke="none" stroke-width="1" fill="none" fill-rule="evenodd">
        <g id="splash" transform="translate(-553.000000, -251.000000)">
            <g id="logo" transform="translate(555.000000, 261.000000)">
                <path d="M0.484,101.644 L7.78,101.644 L7.78,136.528 C8.89467224,133.943987 10.4653232,131.866675 12.492,130.296 C14.5186768,128.725325 17.127984,127.914667 20.32,127.864 C23.6640167,127.864 26.3239901,128.750658 28.3,130.524 C30.2760099,132.297342 31.3146662,134.653319 31.416,137.592 L31.416,161 L24.196,161 L24.196,141.012 C24.0946662,139.441325 23.5373384,138.086006 22.524,136.946 C21.5106616,135.805994 19.9400106,135.185334 17.812,135.084 C16.3426593,135.084 14.9873395,135.349997 13.746,135.882 C12.5046605,136.414003 11.4406711,137.135995 10.554,138.048 C9.6673289,138.960005 8.98333574,140.049327 8.502,141.316 C8.02066426,142.582673 7.78,143.950659 7.78,145.42 L7.78,161 L0.484,161 L0.484,101.644 Z M39.32,116.16 C39.32,114.84266 39.8013285,113.753338 40.764,112.892 C41.7266715,112.030662 42.7653278,111.6 43.88,111.6 C44.9946722,111.6 46.020662,112.030662 46.958,112.892 C47.895338,113.753338 48.364,114.84266 48.364,116.16 C48.364,117.528007 47.895338,118.629996 46.958,119.466 C46.020662,120.302004 44.9946722,120.72 43.88,120.72 C42.7653278,120.72 41.7266715,120.302004 40.764,119.466 C39.8013285,118.629996 39.32,117.528007 39.32,116.16 L39.32,116.16 Z M47.452,161 L40.156,161 L40.156,128.7 L47.452,128.7 L47.452,161 Z M83.096,144.812 C83.096,141.974652 82.2726749,139.631343 80.626,137.782 C78.9793251,135.932657 76.6866814,135.008 73.748,135.008 C72.2786593,135.008 70.9360061,135.248664 69.72,135.73 C68.5039939,136.211336 67.4526711,136.895329 66.566,137.782 C65.6793289,138.668671 64.9826692,139.707327 64.476,140.898 C63.9693308,142.088673 63.716,143.367993 63.716,144.736 C63.716,146.154674 63.9693308,147.471994 64.476,148.688 C64.9826692,149.904006 65.6793289,150.955329 66.566,151.842 C67.4526711,152.728671 68.5039939,153.425331 69.72,153.932 C70.9360061,154.438669 72.2786593,154.692 73.748,154.692 C75.2173407,154.692 76.5346608,154.438669 77.7,153.932 C78.8653392,153.425331 79.8406627,152.716005 80.626,151.804 C81.4113373,150.891995 82.0193312,149.840673 82.45,148.65 C82.8806688,147.459327 83.096,146.180007 83.096,144.812 L83.096,144.812 Z M91,144.964 C91,147.396012 90.5946707,149.63799 89.784,151.69 C88.9733293,153.74201 87.8206741,155.527992 86.326,157.048 C84.8313259,158.568008 83.0453437,159.745996 80.968,160.582 C78.8906563,161.418004 76.6106791,161.836 74.128,161.836 C71.6453209,161.836 69.4540095,161.367338 67.554,160.43 C65.6539905,159.492662 64.3493369,158.492005 63.64,157.428 C63.64,157.630668 63.6526665,157.820666 63.678,157.998 C63.7033335,158.175334 63.716,158.390665 63.716,158.644 L63.716,176.504 L56.42,176.504 L56.42,128.7 L63.412,128.7 C63.412,129.409337 63.4626662,130.118663 63.564,130.828 C63.6653338,131.537337 63.716,132.195997 63.716,132.804 C64.1213354,132.297331 64.6406635,131.75267 65.274,131.17 C65.9073365,130.58733 66.6799954,130.055336 67.592,129.574 C68.5040046,129.092664 69.5299943,128.687335 70.67,128.358 C71.8100057,128.028665 73.0639932,127.864 74.432,127.864 C76.9146791,127.864 79.1693232,128.256663 81.196,129.042 C83.2226768,129.827337 84.9579928,130.967326 86.402,132.462 C87.8460072,133.956674 88.9733293,135.755323 89.784,137.858 C90.5946707,139.960677 91,142.32932 91,144.964 L91,144.964 Z M124.668,144.812 C124.668,141.974652 123.844675,139.631343 122.198,137.782 C120.551325,135.932657 118.258681,135.008 115.32,135.008 C113.850659,135.008 112.508006,135.248664 111.292,135.73 C110.075994,136.211336 109.024671,136.895329 108.138,137.782 C107.251329,138.668671 106.554669,139.707327 106.048,140.898 C105.541331,142.088673 105.288,143.367993 105.288,144.736 C105.288,146.154674 105.541331,147.471994 106.048,148.688 C106.554669,149.904006 107.251329,150.955329 108.138,151.842 C109.024671,152.728671 110.075994,153.425331 111.292,153.932 C112.508006,154.438669 113.850659,154.692 115.32,154.692 C116.789341,154.692 118.106661,154.438669 119.272,153.932 C120.437339,153.425331 121.412663,152.716005 122.198,151.804 C122.983337,150.891995 123.591331,149.840673 124.022,148.65 C124.452669,147.459327 124.668,146.180007 124.668,144.812 L124.668,144.812 Z M132.572,144.964 C132.572,147.396012 132.166671,149.63799 131.356,151.69 C130.545329,153.74201 129.392674,155.527992 127.898,157.048 C126.403326,158.568008 124.617344,159.745996 122.54,160.582 C120.462656,161.418004 118.182679,161.836 115.7,161.836 C113.217321,161.836 111.026009,161.367338 109.126,160.43 C107.22599,159.492662 105.921337,158.492005 105.212,157.428 C105.212,157.630668 105.224667,157.820666 105.25,157.998 C105.275333,158.175334 105.288,158.390665 105.288,158.644 L105.288,176.504 L97.992,176.504 L97.992,128.7 L104.984,128.7 C104.984,129.409337 105.034666,130.118663 105.136,130.828 C105.237334,131.537337 105.288,132.195997 105.288,132.804 C105.693335,132.297331 106.212663,131.75267 106.846,131.17 C107.479336,130.58733 108.251995,130.055336 109.164,129.574 C110.076005,129.092664 111.101994,128.687335 112.242,128.358 C113.382006,128.028665 114.635993,127.864 116.004,127.864 C118.486679,127.864 120.741323,128.256663 122.768,129.042 C124.794677,129.827337 126.529993,130.967326 127.974,132.462 C129.418007,133.956674 130.545329,135.755323 131.356,137.858 C132.166671,139.960677 132.572,142.32932 132.572,144.964 L132.572,144.964 Z M137.512,144.812 C137.512,142.481322 137.955329,140.29001 138.842,138.238 C139.728671,136.18599 140.957325,134.400008 142.528,132.88 C144.098675,131.359992 145.935323,130.156671 148.038,129.27 C150.140677,128.383329 152.382655,127.94 154.764,127.94 C157.196012,127.94 159.450656,128.383329 161.528,129.27 C163.605344,130.156671 165.391326,131.359992 166.886,132.88 C168.380674,134.400008 169.558662,136.18599 170.42,138.238 C171.281338,140.29001 171.712,142.481322 171.712,144.812 C171.712,147.142678 171.294004,149.346656 170.458,151.424 C169.621996,153.501344 168.444008,155.312659 166.924,156.858 C165.403992,158.403341 163.605344,159.619329 161.528,160.506 C159.450656,161.392671 157.170679,161.836 154.688,161.836 C152.306655,161.836 150.077344,161.430671 148,160.62 C145.922656,159.809329 144.111341,158.656674 142.566,157.162 C141.020659,155.667326 139.792005,153.868677 138.88,151.766 C137.967995,149.663323 137.512,147.345346 137.512,144.812 L137.512,144.812 Z M144.732,144.888 C144.732,146.256007 144.985331,147.535327 145.492,148.726 C145.998669,149.916673 146.695329,150.955329 147.582,151.842 C148.468671,152.728671 149.507327,153.425331 150.698,153.932 C151.888673,154.438669 153.167993,154.692 154.536,154.692 C155.904007,154.692 157.183327,154.438669 158.374,153.932 C159.564673,153.425331 160.603329,152.728671 161.49,151.842 C162.376671,150.955329 163.085997,149.916673 163.618,148.726 C164.150003,147.535327 164.416,146.256007 164.416,144.888 C164.416,143.519993 164.150003,142.240673 163.618,141.05 C163.085997,139.859327 162.376671,138.820671 161.49,137.934 C160.603329,137.047329 159.564673,136.338003 158.374,135.806 C157.183327,135.273997 155.904007,135.008 154.536,135.008 C153.167993,135.008 151.888673,135.273997 150.698,135.806 C149.507327,136.338003 148.468671,137.047329 147.582,137.934 C146.695329,138.820671 145.998669,139.859327 145.492,141.05 C144.985331,142.240673 144.732,143.519993 144.732,144.888 L144.732,144.888 Z" id="hippo" fill-opacity="0.928102355" fill="#FFFFFF"></path>
                <g id="noun_355435_cc" transform="translate(11.000000, 0.000000)">
                    <g id="Shape">
                        <use fill="black" fill-opacity="1" filter="url(#filter-2)" xlink:href="#path-1"></use>
                        <use fill="#FFFFFF" fill-rule="evenodd" xlink:href="#path-1"></use>
                    </g>
                </g>
            </g>
        </g>
    </g>
</svg>